{
    "asset": {
        "version": "2.0",
        "generator": "Open Asset Import Library (assimp v5.0.5eb040c7)"
    },
    "accessors": [
        {
            "bufferView": 0,
            "byteOffset": 0,
            "componentType": 5126,
            "count": 1446,
            "type": "VEC3",
            "max": [
                3.7254786491394045,
                3.4930152893066408,
                70.38579559326172
            ],
            "min": [
                -3.7254793643951418,
                -3.499163866043091,
                -0.03420543670654297
            ]
        },
        {
            "bufferView": 1,
            "byteOffset": 0,
            "componentType": 5126,
            "count": 1446,
            "type": "VEC3",
            "max": [
                1.0,
                1.0,
                0.9957278966903687
            ],
            "min": [
                -1.0,
                -0.9967259168624878,
                -1.0
            ]
        },
        {
            "bufferView": 2,
            "byteOffset": 0,
            "componentType": 5125,
            "count": 7368,
            "type": "SCALAR",
            "max": [
                1445
            ],
            "min": [
                0
            ]
        },
        {
            "bufferView": 3,
            "byteOffset": 0,
            "componentType": 5126,
            "count": 1080,
            "type": "VEC3",
            "max": [
                2.479800224304199,
                5.088065147399902,
                2.500000476837158
            ],
            "min": [
                -0.9201000332832336,
                -0.8467926383018494,
                0.2550751566886902
            ]
        },
        {
            "bufferView": 4,
            "byteOffset": 0,
            "componentType": 5126,
            "count": 1080,
            "type": "VEC3",
            "max": [
                1.0,
                0.9508039951324463,
                1.0
            ],
            "min": [
                -1.0,
                -0.9508040547370911,
                -1.0
            ]
        },
        {
            "bufferView": 5,
            "byteOffset": 0,
            "componentType": 5125,
            "count": 2880,
            "type": "SCALAR",
            "max": [
                1079
            ],
            "min": [
                0
            ]
        }
    ],
    "buffers": [
        {
            "byteLength": 101616,
            "uri": "result.bin"
        }
    ],
    "bufferViews": [
        {
            "buffer": 0,
            "byteOffset": 0,
            "byteLength": 17352,
            "target": 34962
        },
        {
            "buffer": 0,
            "byteOffset": 17352,
            "byteLength": 17352,
            "target": 34962
        },
        {
            "buffer": 0,
            "byteOffset": 34704,
            "byteLength": 29472,
            "target": 34963
        },
        {
            "buffer": 0,
            "byteOffset": 64176,
            "byteLength": 12960,
            "target": 34962
        },
        {
            "buffer": 0,
            "byteOffset": 77136,
            "byteLength": 12960,
            "target": 34962
        },
        {
            "buffer": 0,
            "byteOffset": 90096,
            "byteLength": 11520,
            "target": 34963
        }
    ],
    "images": [
        {
            "uri": "Philips_Brush_Texture.jpg"
        },
        {
            "uri": "Philips_Bristles_Texture.jpg"
        }
    ],
    "materials": [
        {
            "name": "01 - Default",
            "pbrMetallicRoughness": {
                "baseColorTexture": {
                    "index": 0
                },
                "baseColorFactor": [
                    0.5882353186607361,
                    0.5882353186607361,
                    0.5882353186607361,
                    1.0
                ],
                "metallicFactor": 0.0,
                "roughnessFactor": 0.8937816619873047
            }
        },
        {
            "name": "02 - Default",
            "pbrMetallicRoughness": {
                "baseColorTexture": {
                    "index": 1
                },
                "baseColorFactor": [
                    0.5882353186607361,
                    0.5882353186607361,
                    0.5882353186607361,
                    1.0
                ],
                "metallicFactor": 0.0,
                "roughnessFactor": 0.959750771522522
            }
        }
    ],
    "meshes": [
        {
            "name": "brush",
            "primitives": [
                {
                    "mode": 4,
                    "material": 0,
                    "indices": 2,
                    "attributes": {
                        "POSITION": 0,
                        "NORMAL": 1
                    }
                }
            ]
        },
        {
            "name": "bristles",
            "primitives": [
                {
                    "mode": 4,
                    "material": 1,
                    "indices": 5,
                    "attributes": {
                        "POSITION": 3,
                        "NORMAL": 4
                    }
                }
            ]
        }
    ],
    "nodes": [
        {
            "name": "RootNode",
            "children": [
                1,
                4
            ]
        },
        {
            "name": "brush_$AssimpFbx$_PreRotation",
            "matrix": [
                1.0,
                0.0,
                0.0,
                0.0,
                0.0,
                -4.371138828673793e-8,
                -1.0,
                0.0,
                0.0,
                1.0,
                -4.371138828673793e-8,
                0.0,
                0.0,
                0.0,
                0.0,
                1.0
            ],
            "children": [
                2
            ]
        },
        {
            "name": "brush_$AssimpFbx$_Rotation",
            "matrix": [
                -1.0,
                -3.8941436741879445e-7,
                0.0,
                0.0,
                3.8941436741879445e-7,
                -1.0,
                0.0,
                0.0,
                0.0,
                0.0,
                1.0,
                0.0,
                0.0,
                0.0,
                0.0,
                1.0
            ],
            "children": [
                3
            ]
        },
        {
            "name": "brush",
            "mesh": 0
        },
        {
            "name": "bristles_$AssimpFbx$_Translation",
            "matrix": [
                1.0,
                0.0,
                0.0,
                0.0,
                0.0,
                1.0,
                0.0,
                0.0,
                0.0,
                0.0,
                1.0,
                0.0,
                0.013354003429412842,
                67.02753448486328,
                2.8358426094055177,
                1.0
            ],
            "children": [
                5
            ]
        },
        {
            "name": "bristles_$AssimpFbx$_PreRotation",
            "matrix": [
                1.0,
                0.0,
                0.0,
                0.0,
                0.0,
                -4.371138828673793e-8,
                -1.0,
                0.0,
                0.0,
                1.0,
                -4.371138828673793e-8,
                0.0,
                0.0,
                0.0,
                0.0,
                1.0
            ],
            "children": [
                6
            ]
        },
        {
            "name": "bristles_$AssimpFbx$_Rotation",
            "matrix": [
                1.0,
                0.0,
                0.0,
                0.0,
                0.0,
                3.1391647326017848e-7,
                -1.0,
                0.0,
                0.0,
                1.0,
                3.1391647326017848e-7,
                0.0,
                0.0,
                0.0,
                0.0,
                1.0
            ],
            "children": [
                7
            ]
        },
        {
            "name": "bristles_$AssimpFbx$_Scaling",
            "matrix": [
                -1.0,
                0.0,
                0.0,
                0.0,
                0.0,
                -1.0,
                0.0,
                0.0,
                0.0,
                0.0,
                -1.0,
                0.0,
                0.0,
                0.0,
                0.0,
                1.0
            ],
            "children": [
                8
            ]
        },
        {
            "name": "bristles_$AssimpFbx$_GeometricTranslation",
            "matrix": [
                1.0,
                0.0,
                0.0,
                0.0,
                0.0,
                1.0,
                0.0,
                0.0,
                0.0,
                0.0,
                1.0,
                0.0,
                -0.7798501253128052,
                -2.120636463165283,
                -1.3775378465652466,
                1.0
            ],
            "children": [
                9
            ]
        },
        {
            "name": "bristles",
            "mesh": 1
        }
    ],
    "samplers": [
        {},
        {}
    ],
    "scenes": [
        {
            "nodes": [
                0
            ]
        }
    ],
    "textures": [
        {
            "source": 0,
            "sampler": 0
        },
        {
            "source": 1,
            "sampler": 1
        }
    ],
    "scene": 0
}